<svg xmlns="http://www.w3.org/2000/svg" viewBox="0 0 617.22 123.36"><defs><style>.cls-1{fill:#59595a;}.cls-2{fill:#11ace3;}</style></defs><title>logo-dark</title><g id="Layer_2" data-name="Layer 2"><g id="Layer_1-2" data-name="Layer 1"><g id="_Group_" data-name="&lt;Group&gt;"><path class="cls-1" d="M38,42.69H25.31v48.1H12.81V42.69H0V31.84H38Z"/><path class="cls-1" d="M90.94,90.79H79.23l-3.7-7.7H49.05l-3.78,7.7H33.56l28.69-59ZM70.74,73.26,62.25,55.81,53.84,73.26Z"/><path class="cls-1" d="M122.85,31.84c9.67,0,19.81,9,19.81,20.36S134,72.79,122.85,72.79c-3.06,0-15.32.16-15.32.16V90.79H95.11V31.84h27.74Zm7.71,20.36c0-5.27-3.23-8.41-7.86-9.28-1.26-.23-15.17-.08-15.17-.08V62s13.28.24,15.17-.16A9.36,9.36,0,0,0,130.56,52.2Z"/><path class="cls-1" d="M174.57,31.84c9.67,0,19.81,9,19.81,20.36s-8.64,20.59-19.81,20.59c-3.06,0-15.32.16-15.32.16V90.79H146.83V31.84h27.74Zm7.71,20.36c0-5.27-3.23-8.41-7.86-9.28-1.26-.23-15.17-.08-15.17-.08V62s13.28.24,15.17-.16A9.36,9.36,0,0,0,182.28,52.2Z"/><path class="cls-1" d="M179,123.32l-14.87,0L209.68,0l14.88,0Z"/><path class="cls-1" d="M245.44,42.69H232.7v48.1H220.21V42.69H207.39V31.84h38.05Z"/><path class="cls-1" d="M296.45,31.84v59H284V67.6H261.39V90.79H248.9V31.84h12.49v25H284v-25Z"/><path class="cls-1" d="M357,90.79H345.26l-3.69-7.7H315.08l-3.77,7.7H299.6l28.68-59Zm-20.2-17.53-8.49-17.45-8.41,17.45Z"/><path class="cls-1" d="M390.62,42.69H377.88v48.1H365.39V42.69H352.57V31.84h38.05Z"/><path class="cls-2" d="M453.06,90.79H440.29l-4-7.7H407.39l-4.11,7.7H390.52l31.27-59ZM431,73.26l-9.25-17.45-9.17,17.45Z"/><path class="cls-2" d="M487.84,31.84c10.54,0,21.6,9,21.6,20.36S500,72.79,487.84,72.79c-3.34,0-16.7.16-16.7.16V90.79H457.6V31.84h30.24Zm8.4,20.36c0-5.27-3.51-8.41-8.57-9.28-1.37-.23-16.53-.08-16.53-.08V62s14.48.24,16.53-.16C492.73,60.92,496.24,57.46,496.24,52.2Z"/><path class="cls-2" d="M544.22,31.84c10.54,0,21.59,9,21.59,20.36s-9.42,20.59-21.59,20.59c-3.34,0-16.71.16-16.71.16V90.79H514V31.84h30.24Zm8.4,20.36c0-5.27-3.52-8.41-8.57-9.28-1.37-.23-16.54-.08-16.54-.08V62s14.48.24,16.54-.16C549.1,60.92,552.62,57.46,552.62,52.2Z"/><path class="cls-2" d="M614.13,66c2.74,5,2.74,10.77-.34,16.35-3.77,6-10.54,9.43-19.11,9.43a22.89,22.89,0,0,1-6.51-.63,23.92,23.92,0,0,1-17.82-14.38L581.75,73s2.22,7.23,11.56,7.54H594c3.08,0,5.82-.94,7.19-2.83a6.55,6.55,0,0,0,.69-6c-1-2.2-4.11-4.4-8.22-5-8-.94-14.06-3.77-17.83-8.72a15.68,15.68,0,0,1-3.08-13.29,17.15,17.15,0,0,1,7.54-10.29c4-2.52,8.91-3.78,14.74-3.78a23.29,23.29,0,0,1,17.73,7.55c3.09,3.69,4.46,7.15,4.46,7.86l-11.57,3.46S603.59,43,595,41.82c-2.83-.39-7.2.94-8.4,4.17-2.06,5.74,4.2,8.88,9.6,9.66C604,56.83,610.71,60.06,614.13,66Z"/></g></g></g></svg>